<svg width="24" height="24" viewBox="0 0 24 24" fill="none" xmlns="http://www.w3.org/2000/svg">
<path d="M12.9995 22H10.9995V16H12.9995V22ZM6.99951 19H4.99951V17H6.99951V19ZM18.9995 19H16.9995V17H18.9995V19ZM8.99951 17H6.99951V15H8.99951V17ZM16.9995 17H14.9995V15H16.9995V17ZM7.99951 13H1.99951V11H7.99951V13ZM21.9995 13H15.9995V11H21.9995V13ZM8.99951 9H6.99951V7H8.99951V9ZM16.9995 9H14.9995V7H16.9995V9ZM12.9995 8H10.9995V2H12.9995V8ZM6.99951 7H4.99951V5H6.99951V7ZM18.9995 7H16.9995V5H18.9995V7Z" fill="black"/>
</svg>
