<svg width="24" height="24" viewBox="0 0 24 24" fill="none" xmlns="http://www.w3.org/2000/svg">
<g clip-path="url(#clip0_1360_1503)">
<path d="M13 2H15V4H13V11H20V9H22V11H24V13H22V15H20V13H13V20H15V22H13V24H11V22H9V20H11V13H4V15H2V13H0V11H2V9H4V11H11V4H9V2H11V0H13V2ZM9 20H7V18H9V20ZM17 20H15V18H17V20ZM6 17H4V15H6V17ZM20 17H18V15H20V17ZM6 9H4V7H6V9ZM20 9H18V7H20V9ZM9 6H7V4H9V6ZM17 6H15V4H17V6Z" fill="black"/>
</g>
<defs>
<clipPath id="clip0_1360_1503">
<rect width="24" height="24" fill="white"/>
</clipPath>
</defs>
</svg>
